<?xml version="1.0" encoding="UTF-8" ?>
<!DOCTYPE svg PUBLIC "-//W3C//DTD SVG 1.1//EN" "http://www.w3.org/Graphics/SVG/1.1/DTD/svg11.dtd">
<svg width="185pt" height="123pt" viewBox="0 0 185 123" version="1.1" xmlns="http://www.w3.org/2000/svg">
<g id="#ffffffff">
<path fill="#ffffff" opacity="1.00" d=" M 0.00 0.00 L 185.00 0.00 L 185.00 13.67 C 146.18 13.67 107.35 13.66 68.53 13.67 C 68.51 18.22 68.51 22.78 68.53 27.33 C 107.35 27.33 146.18 27.35 185.00 27.32 L 185.00 41.00 C 146.17 41.00 107.35 41.00 68.52 41.00 C 68.52 45.54 68.53 50.08 68.49 54.62 C 107.32 54.74 146.16 54.63 185.00 54.68 L 185.00 68.33 C 123.33 68.33 61.67 68.34 0.00 68.32 L 0.00 0.00 M 31.48 21.76 C 30.81 18.74 28.35 16.70 25.99 14.96 C 25.39 13.52 24.93 12.03 24.39 10.56 C 21.92 14.89 26.14 18.50 26.61 22.67 L 24.81 22.10 C 23.56 20.90 22.20 19.77 20.49 19.30 C 19.30 17.88 17.66 16.95 16.10 15.98 C 17.92 19.18 20.02 22.22 22.27 25.13 C 21.83 25.40 20.97 25.94 20.53 26.21 C 18.22 25.88 15.89 25.96 13.57 26.20 C 12.64 25.49 11.76 24.71 10.85 23.98 C 11.22 29.58 17.93 28.55 20.93 31.85 C 16.97 33.04 12.64 32.82 8.84 34.46 C 12.48 35.06 16.12 35.70 19.78 36.11 C 19.99 38.20 17.41 38.67 16.61 40.29 C 15.67 41.05 14.95 42.05 14.16 42.97 C 13.24 43.05 11.39 43.21 10.47 43.29 C 11.25 43.85 12.07 44.35 12.91 44.81 C 16.71 45.54 19.36 41.19 23.23 42.22 C 21.61 43.97 20.13 45.86 19.13 48.04 C 17.81 49.14 17.03 50.71 16.09 52.12 C 20.04 50.19 23.46 47.35 27.02 44.80 C 25.04 49.00 28.16 54.41 24.02 57.69 C 29.62 57.07 28.66 50.58 31.87 47.43 C 32.92 51.59 33.23 55.91 34.46 60.04 C 35.07 56.09 35.89 52.19 36.39 48.23 C 39.11 49.53 40.38 52.85 43.19 54.27 C 43.28 55.49 43.34 56.71 43.38 57.93 C 43.93 57.06 44.55 56.21 44.90 55.24 C 45.49 51.51 41.37 48.87 42.28 45.09 C 43.83 46.53 45.43 48.02 47.51 48.65 C 48.78 50.24 50.62 51.19 52.36 52.17 C 50.32 48.51 47.60 45.31 45.43 41.75 C 48.29 42.30 51.23 42.58 54.10 41.90 C 55.40 42.58 56.57 43.47 57.79 44.28 C 57.08 42.80 56.77 40.84 55.10 40.10 C 52.48 39.02 49.54 38.56 47.60 36.26 C 48.23 36.15 49.49 35.93 50.12 35.82 C 53.45 35.51 56.74 34.96 60.04 34.42 C 55.97 32.73 51.48 32.55 47.17 31.88 C 49.63 30.18 52.29 28.50 53.64 25.71 C 54.98 25.19 56.42 25.02 57.80 24.67 C 56.61 24.14 55.39 23.66 54.16 23.25 C 51.36 24.02 48.56 27.10 45.58 25.68 C 47.16 24.13 48.43 22.32 49.41 20.35 L 49.71 20.17 C 50.74 18.97 51.54 17.61 52.05 16.11 C 48.86 18.25 45.74 20.50 42.59 22.70 L 41.79 22.58 C 41.92 21.98 42.18 20.80 42.31 20.21 C 42.56 16.92 41.62 13.42 44.13 10.73 C 39.48 11.48 39.62 16.73 37.52 19.83 C 35.08 19.19 36.10 15.29 35.36 13.25 L 35.36 13.27 C 35.13 11.78 34.85 10.30 34.54 8.83 C 32.65 12.88 32.85 17.53 31.48 21.76 Z" />
<path fill="#ffffff" opacity="1.00" d=" M 0.00 82.00 C 61.67 82.00 123.33 82.00 185.00 82.00 L 185.00 95.67 C 123.33 95.67 61.67 95.66 0.00 95.67 L 0.00 82.00 Z" />
<path fill="#ffffff" opacity="1.00" d=" M 0.00 109.33 C 61.67 109.32 123.33 109.35 185.00 109.32 L 185.00 123.00 L 0.00 123.00 L 0.00 109.33 Z" />
</g>
<g id="#854a03ff">
<path fill="#854a03" opacity="1.00" d=" M 31.48 21.76 C 32.85 17.53 32.65 12.88 34.54 8.83 C 34.85 10.30 35.13 11.78 35.36 13.27 C 35.59 17.68 34.15 22.00 34.72 26.42 C 33.30 26.53 32.22 25.55 31.12 24.83 C 31.21 24.06 31.39 22.53 31.48 21.76 Z" />
<path fill="#854a03" opacity="1.00" d=" M 24.39 10.56 C 24.93 12.03 25.39 13.52 25.99 14.96 C 27.15 17.76 28.79 20.33 30.30 22.95 C 30.17 23.74 29.93 25.32 29.81 26.11 C 28.08 24.86 26.38 23.56 24.81 22.10 L 26.61 22.67 C 26.14 18.50 21.92 14.89 24.39 10.56 Z" />
<path fill="#854a03" opacity="1.00" d=" M 37.52 19.83 C 39.62 16.73 39.48 11.48 44.13 10.73 C 41.62 13.42 42.56 16.92 42.31 20.21 C 42.11 18.31 41.85 16.43 41.58 14.54 C 40.80 18.23 39.95 21.92 38.58 25.44 C 39.91 24.53 41.26 23.62 42.59 22.70 C 45.74 20.50 48.86 18.25 52.05 16.11 C 51.54 17.61 50.74 18.97 49.71 20.17 L 49.41 20.35 C 45.75 22.33 43.23 25.78 40.44 28.77 C 39.24 27.97 38.04 27.17 36.84 26.37 C 36.64 24.59 36.43 22.82 36.24 21.04 C 36.56 20.74 37.20 20.13 37.52 19.83 Z" />
<path fill="#854a03" opacity="1.00" d=" M 16.10 15.98 C 17.66 16.95 19.30 17.88 20.49 19.30 C 22.82 22.65 25.79 25.44 28.80 28.15 C 28.07 29.29 27.33 30.43 26.60 31.57 C 22.91 32.09 19.10 32.26 15.64 33.78 C 19.14 34.04 22.66 33.93 26.16 33.79 C 26.41 35.11 26.66 36.42 26.91 37.74 C 25.72 39.26 24.50 40.77 23.23 42.22 C 19.36 41.19 16.71 45.54 12.91 44.81 C 12.07 44.35 11.25 43.85 10.47 43.29 C 11.39 43.21 13.24 43.05 14.16 42.97 C 18.02 41.31 21.39 38.70 25.35 37.26 C 24.65 37.10 23.25 36.80 22.55 36.65 C 21.63 36.45 20.71 36.27 19.78 36.11 C 16.12 35.70 12.48 35.06 8.84 34.46 C 12.64 32.82 16.97 33.04 20.93 31.85 C 17.93 28.55 11.22 29.58 10.85 23.98 C 11.76 24.71 12.64 25.49 13.57 26.20 C 14.76 26.81 16.03 27.21 17.32 27.47 C 20.04 28.05 22.72 28.80 25.30 29.82 C 24.62 28.84 23.95 27.84 23.34 26.81 C 23.14 26.47 22.74 25.79 22.53 25.45 L 22.27 25.13 C 20.02 22.22 17.92 19.18 16.10 15.98 Z" />
<path fill="#854a03" opacity="1.00" d=" M 45.58 25.68 C 48.56 27.10 51.36 24.02 54.16 23.25 C 55.39 23.66 56.61 24.14 57.80 24.67 C 56.42 25.02 54.98 25.19 53.64 25.71 C 50.29 27.15 47.23 29.15 43.90 30.64 C 44.99 31.06 46.06 31.51 47.17 31.88 C 51.48 32.55 55.97 32.73 60.04 34.42 C 56.74 34.96 53.45 35.51 50.12 35.82 C 49.11 33.91 46.71 34.56 44.99 34.53 C 43.38 34.37 42.56 35.13 42.52 36.81 C 44.21 36.62 45.90 36.43 47.60 36.26 C 49.54 38.56 52.48 39.02 55.10 40.10 C 56.77 40.84 57.08 42.80 57.79 44.28 C 56.57 43.47 55.40 42.58 54.10 41.90 C 50.48 40.74 46.77 39.88 43.22 38.52 C 43.96 39.59 44.72 40.65 45.43 41.75 C 47.60 45.31 50.32 48.51 52.36 52.17 C 50.62 51.19 48.78 50.24 47.51 48.65 C 45.33 45.42 42.70 42.49 39.37 40.43 C 40.42 39.02 41.47 37.61 42.52 36.20 C 42.22 34.31 41.90 32.42 41.56 30.53 C 42.84 28.86 44.15 27.21 45.58 25.68 Z" />
<path fill="#854a03" opacity="1.00" d=" M 32.45 34.82 C 33.07 36.31 34.20 37.14 35.82 37.31 L 35.61 34.75 C 36.48 35.88 36.53 37.34 36.80 38.68 C 34.95 38.61 33.11 38.59 31.26 38.58 C 31.31 37.49 31.85 36.85 32.88 36.65 L 32.45 34.82 Z" />
<path fill="#854a03" opacity="1.00" d=" M 28.26 39.60 C 29.36 40.34 30.47 41.07 31.57 41.80 C 32.14 45.62 32.42 49.53 33.83 53.16 C 34.21 49.55 34.09 45.92 33.87 42.30 C 35.28 41.99 36.68 41.67 38.08 41.35 C 39.49 42.58 40.90 43.82 42.28 45.09 C 41.37 48.87 45.49 51.51 44.90 55.24 C 44.55 56.21 43.93 57.06 43.38 57.93 C 43.34 56.71 43.28 55.49 43.19 54.27 C 41.71 50.33 39.13 46.91 37.18 43.19 C 36.90 44.87 36.62 46.54 36.39 48.23 C 35.89 52.19 35.07 56.09 34.46 60.04 C 33.23 55.91 32.92 51.59 31.87 47.43 C 28.66 50.58 29.62 57.07 24.02 57.69 C 28.16 54.41 25.04 49.00 27.02 44.80 C 23.46 47.35 20.04 50.19 16.09 52.12 C 17.03 50.71 17.81 49.14 19.13 48.04 C 22.66 45.79 25.39 42.59 28.26 39.60 M 27.12 51.56 C 28.10 48.65 28.90 45.69 29.98 42.82 C 26.75 44.33 26.17 48.46 27.12 51.56 Z" />
</g>
<g id="#fcd116ff">
<path fill="#fcd116" opacity="1.00" d=" M 35.36 13.27 L 35.36 13.25 C 36.10 15.29 35.08 19.19 37.52 19.83 C 37.20 20.13 36.56 20.74 36.24 21.04 C 36.43 22.82 36.64 24.59 36.84 26.37 C 38.04 27.17 39.24 27.97 40.44 28.77 C 43.23 25.78 45.75 22.33 49.41 20.35 C 48.43 22.32 47.16 24.13 45.58 25.68 C 44.15 27.21 42.84 28.86 41.56 30.53 C 41.90 32.42 42.22 34.31 42.52 36.20 C 41.47 37.61 40.42 39.02 39.37 40.43 C 42.70 42.49 45.33 45.42 47.51 48.65 C 45.43 48.02 43.83 46.53 42.28 45.09 C 40.90 43.82 39.49 42.58 38.08 41.35 C 36.68 41.67 35.28 41.99 33.87 42.30 C 34.09 45.92 34.21 49.55 33.83 53.16 C 32.42 49.53 32.14 45.62 31.57 41.80 C 30.47 41.07 29.36 40.34 28.26 39.60 C 25.39 42.59 22.66 45.79 19.13 48.04 C 20.13 45.86 21.61 43.97 23.23 42.22 C 24.50 40.77 25.72 39.26 26.91 37.74 C 26.66 36.42 26.41 35.11 26.16 33.79 C 22.66 33.93 19.14 34.04 15.64 33.78 C 19.10 32.26 22.91 32.09 26.60 31.57 C 27.33 30.43 28.07 29.29 28.80 28.15 C 25.79 25.44 22.82 22.65 20.49 19.30 C 22.20 19.77 23.56 20.90 24.81 22.10 C 26.38 23.56 28.08 24.86 29.81 26.11 C 29.93 25.32 30.17 23.74 30.30 22.95 C 28.79 20.33 27.15 17.76 25.99 14.96 C 28.35 16.70 30.81 18.74 31.48 21.76 C 31.39 22.53 31.21 24.06 31.12 24.83 C 32.22 25.55 33.30 26.53 34.72 26.42 C 34.15 22.00 35.59 17.68 35.36 13.27 M 37.22 29.40 C 35.15 30.41 35.51 33.28 37.97 33.27 C 38.70 32.30 39.34 31.27 39.99 30.25 C 39.07 29.96 38.14 29.68 37.22 29.40 M 29.03 30.13 C 29.33 31.15 29.64 32.17 29.94 33.19 C 30.62 33.05 31.97 32.77 32.64 32.63 C 32.66 32.04 32.70 30.85 32.72 30.26 C 31.49 30.22 30.26 30.17 29.03 30.13 M 32.45 34.82 L 32.88 36.65 C 31.85 36.85 31.31 37.49 31.26 38.58 C 33.11 38.59 34.95 38.61 36.80 38.68 C 36.53 37.34 36.48 35.88 35.61 34.75 L 35.82 37.31 C 34.20 37.14 33.07 36.31 32.45 34.82 Z" />
<path fill="#fcd116" opacity="1.00" d=" M 38.58 25.44 C 39.95 21.92 40.80 18.23 41.58 14.54 C 41.85 16.43 42.11 18.31 42.31 20.21 C 42.18 20.80 41.92 21.98 41.79 22.58 L 42.59 22.70 C 41.26 23.62 39.91 24.53 38.58 25.44 Z" />
<path fill="#fcd116" opacity="1.00" d=" M 17.32 27.47 C 19.33 27.27 21.33 27.02 23.34 26.81 C 23.95 27.84 24.62 28.84 25.30 29.82 C 22.72 28.80 20.04 28.05 17.32 27.47 Z" />
<path fill="#fcd116" opacity="1.00" d=" M 42.52 36.81 C 42.56 35.13 43.38 34.37 44.99 34.53 C 46.71 34.56 49.11 33.91 50.12 35.82 C 49.49 35.93 48.23 36.15 47.60 36.26 C 45.90 36.43 44.21 36.62 42.52 36.81 Z" />
<path fill="#fcd116" opacity="1.00" d=" M 16.61 40.29 C 18.62 39.12 20.61 37.93 22.55 36.65 C 23.25 36.80 24.65 37.10 25.35 37.26 C 21.39 38.70 18.02 41.31 14.16 42.97 C 14.95 42.05 15.67 41.05 16.61 40.29 Z" />
<path fill="#fcd116" opacity="1.00" d=" M 43.22 38.52 C 46.77 39.88 50.48 40.74 54.10 41.90 C 51.23 42.58 48.29 42.30 45.43 41.75 C 44.72 40.65 43.96 39.59 43.22 38.52 Z" />
<path fill="#fcd116" opacity="1.00" d=" M 27.12 51.56 C 26.17 48.46 26.75 44.33 29.98 42.82 C 28.90 45.69 28.10 48.65 27.12 51.56 Z" />
</g>
<g id="#0038a8ff">
<path fill="#0038a8" opacity="1.00" d=" M 68.53 13.67 C 107.35 13.66 146.18 13.67 185.00 13.67 L 185.00 27.32 C 146.18 27.35 107.35 27.33 68.53 27.33 C 68.51 22.78 68.51 18.22 68.53 13.67 Z" />
<path fill="#0038a8" opacity="1.00" d=" M 68.52 41.00 C 107.35 41.00 146.17 41.00 185.00 41.00 L 185.00 54.68 C 146.16 54.63 107.32 54.74 68.49 54.62 C 68.53 50.08 68.52 45.54 68.52 41.00 Z" />
<path fill="#0038a8" opacity="1.00" d=" M 0.00 68.32 C 61.67 68.34 123.33 68.33 185.00 68.33 L 185.00 82.00 C 123.33 82.00 61.67 82.00 0.00 82.00 L 0.00 68.32 Z" />
<path fill="#0038a8" opacity="1.00" d=" M 0.00 95.67 C 61.67 95.66 123.33 95.67 185.00 95.67 L 185.00 109.32 C 123.33 109.35 61.67 109.32 0.00 109.33 L 0.00 95.67 Z" />
</g>
<g id="#b9954cff">
<path fill="#b9954c" opacity="1.00" d=" M 22.27 25.13 L 22.53 25.45 C 22.74 25.79 23.14 26.47 23.34 26.81 C 21.33 27.02 19.33 27.27 17.32 27.47 C 16.03 27.21 14.76 26.81 13.57 26.20 C 15.89 25.96 18.22 25.88 20.53 26.21 C 20.97 25.94 21.83 25.40 22.27 25.13 Z" />
<path fill="#b9954c" opacity="1.00" d=" M 43.90 30.64 C 47.23 29.15 50.29 27.15 53.64 25.71 C 52.29 28.50 49.63 30.18 47.17 31.88 C 46.06 31.51 44.99 31.06 43.90 30.64 Z" />
<path fill="#b9954c" opacity="1.00" d=" M 37.22 29.40 C 38.14 29.68 39.07 29.96 39.99 30.25 C 39.34 31.27 38.70 32.30 37.97 33.27 C 35.51 33.28 35.15 30.41 37.22 29.40 Z" />
<path fill="#b9954c" opacity="1.00" d=" M 29.03 30.13 C 30.26 30.17 31.49 30.22 32.72 30.26 C 32.70 30.85 32.66 32.04 32.64 32.63 C 31.97 32.77 30.62 33.05 29.94 33.19 C 29.64 32.17 29.33 31.15 29.03 30.13 Z" />
<path fill="#b9954c" opacity="1.00" d=" M 19.78 36.11 C 20.71 36.27 21.63 36.45 22.55 36.65 C 20.61 37.93 18.62 39.12 16.61 40.29 C 17.41 38.67 19.99 38.20 19.78 36.11 Z" />
<path fill="#b9954c" opacity="1.00" d=" M 37.18 43.19 C 39.13 46.91 41.71 50.33 43.19 54.27 C 40.38 52.85 39.11 49.53 36.39 48.23 C 36.62 46.54 36.90 44.87 37.18 43.19 Z" />
</g>
</svg>
