<?xml version="1.0" encoding="UTF-8" ?>
<!DOCTYPE svg PUBLIC "-//W3C//DTD SVG 1.1//EN" "http://www.w3.org/Graphics/SVG/1.1/DTD/svg11.dtd">
<svg width="185pt" height="123pt" viewBox="0 0 185 123" version="1.1" xmlns="http://www.w3.org/2000/svg">
<g id="#0039a6ff">
<path fill="#0039a6" opacity="1.00" d=" M 0.00 0.00 L 61.67 0.00 C 61.67 20.50 61.67 41.00 61.67 61.50 C 41.11 61.50 20.56 61.50 0.00 61.50 L 0.00 0.00 M 30.83 15.39 C 29.67 18.93 28.53 22.47 27.36 26.00 C 23.65 26.00 19.94 26.00 16.23 26.01 C 19.24 28.19 22.25 30.37 25.23 32.58 C 24.08 36.12 22.91 39.64 21.79 43.18 C 24.81 41.00 27.83 38.81 30.86 36.63 C 33.90 38.77 36.87 41.00 39.88 43.17 C 38.75 39.64 37.58 36.11 36.44 32.57 C 39.45 30.38 42.48 28.21 45.50 26.04 C 41.76 25.98 38.03 26.01 34.29 25.99 C 33.14 22.46 32.00 18.92 30.83 15.39 Z" />
</g>
<g id="#ffffffff">
<path fill="#ffffff" opacity="1.00" d=" M 61.67 0.00 L 185.00 0.00 L 185.00 61.50 C 143.89 61.50 102.78 61.50 61.67 61.50 C 61.67 41.00 61.67 20.50 61.67 0.00 Z" />
<path fill="#ffffff" opacity="1.00" d=" M 30.83 15.39 C 32.00 18.92 33.14 22.46 34.29 25.99 C 38.03 26.01 41.76 25.98 45.50 26.04 C 42.48 28.21 39.45 30.38 36.44 32.57 C 37.58 36.11 38.75 39.64 39.88 43.17 C 36.87 41.00 33.90 38.77 30.86 36.63 C 27.83 38.81 24.81 41.00 21.79 43.18 C 22.91 39.64 24.08 36.12 25.23 32.58 C 22.25 30.37 19.24 28.19 16.23 26.01 C 19.94 26.00 23.65 26.00 27.36 26.00 C 28.53 22.47 29.67 18.93 30.83 15.39 Z" />
</g>
<g id="#d72b1fff">
<path fill="#d72b1f" opacity="1.00" d=" M 0.00 61.50 C 20.56 61.50 41.11 61.50 61.67 61.50 C 102.78 61.50 143.89 61.50 185.00 61.50 L 185.00 123.00 L 0.00 123.00 L 0.00 61.50 Z" />
</g>
</svg>
