<?xml version="1.0" encoding="UTF-8" ?>
<!DOCTYPE svg PUBLIC "-//W3C//DTD SVG 1.1//EN" "http://www.w3.org/Graphics/SVG/1.1/DTD/svg11.dtd">
<svg width="185pt" height="116pt" viewBox="0 0 185 116" version="1.1" xmlns="http://www.w3.org/2000/svg">
<g id="#74acdfff">
<path fill="#74acdf" opacity="1.00" d=" M 0.00 0.00 L 185.00 0.00 L 185.00 38.89 C 183.68 38.78 182.36 38.70 181.03 38.67 C 120.69 38.67 60.34 38.67 0.00 38.67 L 0.00 0.00 Z" />
<path fill="#74acdf" opacity="1.00" d=" M 0.00 77.34 C 61.67 77.33 123.33 77.34 185.00 77.34 L 185.00 116.00 L 0.00 116.00 L 0.00 77.34 Z" />
</g>
<g id="#ffffffff">
<path fill="#ffffff" opacity="1.00" d=" M 0.00 38.67 C 60.34 38.67 120.69 38.67 181.03 38.67 C 182.36 38.70 183.68 38.78 185.00 38.89 L 185.00 77.34 C 123.33 77.34 61.67 77.33 0.00 77.34 L 0.00 38.67 M 88.97 41.51 C 89.16 44.20 89.62 46.86 89.98 49.54 C 88.61 47.19 87.97 44.30 85.76 42.56 C 86.14 43.38 86.91 45.02 87.29 45.84 C 86.88 46.42 86.45 46.99 86.01 47.55 C 85.30 46.13 84.36 44.83 82.96 44.03 C 83.99 46.52 85.61 48.71 86.82 51.11 C 84.80 49.32 82.84 47.47 80.68 45.85 C 81.39 47.57 82.53 49.05 83.75 50.44 C 81.93 50.07 80.22 49.33 78.52 48.62 C 79.77 50.57 82.19 51.31 83.37 53.30 C 81.23 52.59 79.08 51.92 76.85 51.57 C 78.67 52.82 80.63 53.87 82.73 54.57 L 82.00 55.45 C 81.29 55.24 79.87 54.83 79.16 54.62 C 78.64 54.40 75.79 54.21 77.16 55.39 C 78.55 56.21 80.01 56.41 81.56 56.01 L 81.21 57.38 C 79.82 57.40 78.44 57.40 77.05 57.40 C 77.05 57.69 77.05 58.27 77.05 58.56 C 78.24 58.62 80.62 58.73 81.81 58.79 C 80.16 59.52 78.35 59.98 76.90 61.11 C 78.52 62.43 81.20 60.29 83.18 60.78 C 81.10 62.02 78.94 63.14 76.91 64.47 C 79.05 63.80 83.33 62.46 85.47 61.79 C 83.07 63.47 80.55 65.05 78.51 67.18 C 81.36 66.82 83.44 64.61 85.92 63.40 C 84.09 65.54 81.79 67.41 80.71 70.08 C 82.30 68.89 83.82 67.62 85.43 66.46 C 84.72 68.29 83.95 70.11 82.99 71.82 C 83.43 71.58 84.31 71.10 84.75 70.86 C 85.67 69.12 86.85 67.54 88.28 66.19 C 87.48 68.61 86.48 70.96 85.83 73.43 C 87.99 71.64 88.61 68.74 89.95 66.40 C 89.38 69.09 89.12 71.80 89.16 74.53 C 90.75 72.31 90.74 69.48 91.52 66.96 C 91.97 69.31 92.07 71.70 92.04 74.09 L 92.98 74.16 C 92.91 71.32 92.94 68.45 93.52 65.65 C 94.04 68.66 93.97 71.99 96.05 74.46 C 95.82 71.76 95.36 69.10 95.01 66.42 C 96.36 68.79 97.11 71.58 99.15 73.50 C 98.49 70.89 97.47 68.38 96.60 65.85 C 98.20 68.05 99.82 70.33 102.06 71.94 C 100.99 69.53 99.49 67.36 98.16 65.10 C 100.51 66.38 102.00 68.75 104.32 70.11 C 103.53 68.47 102.50 66.97 101.44 65.51 C 103.16 66.04 104.84 66.70 106.50 67.38 C 104.81 65.18 102.30 63.90 100.22 62.15 C 102.78 63.03 105.34 63.93 107.99 64.54 C 105.77 62.71 103.08 61.64 100.54 60.36 C 103.27 60.75 105.97 61.36 108.72 61.62 C 107.44 59.40 104.36 60.61 102.85 58.77 C 104.65 58.66 106.46 58.57 108.28 58.49 C 107.57 56.67 105.13 57.70 103.73 57.11 C 105.07 56.40 106.46 55.80 107.90 55.33 C 107.86 55.03 107.78 54.44 107.74 54.14 C 105.86 54.86 103.84 55.08 101.85 55.23 C 103.93 54.02 106.07 52.89 108.04 51.50 C 105.86 52.21 101.51 53.63 99.33 54.34 C 101.75 52.58 104.38 51.01 106.48 48.85 C 103.64 49.16 101.56 51.37 99.10 52.58 C 100.97 50.46 103.19 48.53 104.37 45.90 C 104.00 46.21 103.28 46.83 102.91 47.15 L 102.55 47.17 C 101.54 48.09 100.45 48.87 99.25 49.52 C 100.27 47.75 101.22 45.92 101.88 43.98 C 100.31 45.26 99.05 46.85 97.67 48.31 C 98.02 46.34 98.53 44.40 99.15 42.49 C 97.08 44.34 96.45 47.12 95.24 49.50 C 95.34 46.81 96.07 44.17 95.81 41.48 C 94.21 43.86 94.19 46.85 93.20 49.48 C 92.71 46.84 93.76 43.74 92.15 41.39 C 92.00 44.38 92.11 47.41 91.49 50.36 C 90.95 47.34 91.01 44.01 88.97 41.51 Z" />
</g>
<g id="#cc8d3fff">
<path fill="#cc8d3f" opacity="1.00" d=" M 88.97 41.51 C 91.01 44.01 90.95 47.34 91.49 50.36 C 92.11 47.41 92.00 44.38 92.15 41.39 C 93.76 43.74 92.71 46.84 93.20 49.48 C 94.19 46.85 94.21 43.86 95.81 41.48 C 96.07 44.17 95.34 46.81 95.24 49.50 C 96.45 47.12 97.08 44.34 99.15 42.49 C 98.53 44.40 98.02 46.34 97.67 48.31 L 97.43 48.49 L 97.35 48.68 C 97.43 48.59 97.59 48.40 97.67 48.31 C 99.05 46.85 100.31 45.26 101.88 43.98 C 101.22 45.92 100.27 47.75 99.25 49.52 C 99.17 49.67 99.02 49.98 98.94 50.13 C 98.45 50.51 98.45 50.51 98.94 50.13 L 99.32 49.87 L 99.25 49.52 C 100.45 48.87 101.54 48.09 102.55 47.17 L 102.91 47.15 C 103.28 46.83 104.00 46.21 104.37 45.90 C 103.19 48.53 100.97 50.46 99.10 52.58 C 101.56 51.37 103.64 49.16 106.48 48.85 C 104.38 51.01 101.75 52.58 99.33 54.34 C 101.51 53.63 105.86 52.21 108.04 51.50 C 106.07 52.89 103.93 54.02 101.85 55.23 C 103.84 55.08 105.86 54.86 107.74 54.14 C 107.78 54.44 107.86 55.03 107.90 55.33 C 106.46 55.80 105.07 56.40 103.73 57.11 C 105.13 57.70 107.57 56.67 108.28 58.49 C 106.46 58.57 104.65 58.66 102.85 58.77 C 104.36 60.61 107.44 59.40 108.72 61.62 C 105.97 61.36 103.27 60.75 100.54 60.36 C 103.08 61.64 105.77 62.71 107.99 64.54 C 105.34 63.93 102.78 63.03 100.22 62.15 C 102.30 63.90 104.81 65.18 106.50 67.38 C 104.84 66.70 103.16 66.04 101.44 65.51 L 101.48 65.39 L 101.31 65.34 C 101.35 65.38 101.41 65.47 101.44 65.51 C 102.50 66.97 103.53 68.47 104.32 70.11 C 102.00 68.75 100.51 66.38 98.16 65.10 C 99.49 67.36 100.99 69.53 102.06 71.94 C 99.82 70.33 98.20 68.05 96.60 65.85 C 97.47 68.38 98.49 70.89 99.15 73.50 C 97.11 71.58 96.36 68.79 95.01 66.42 C 95.36 69.10 95.82 71.76 96.05 74.46 C 93.97 71.99 94.04 68.66 93.52 65.65 C 92.94 68.45 92.91 71.32 92.98 74.16 L 92.04 74.09 C 92.07 71.70 91.97 69.31 91.52 66.96 C 90.74 69.48 90.75 72.31 89.16 74.53 C 89.12 71.80 89.38 69.09 89.95 66.40 C 88.61 68.74 87.99 71.64 85.83 73.43 C 86.48 70.96 87.48 68.61 88.28 66.19 C 86.85 67.54 85.67 69.12 84.75 70.86 C 84.31 71.10 83.43 71.58 82.99 71.82 C 83.95 70.11 84.72 68.29 85.43 66.46 L 85.63 66.52 L 85.68 66.27 C 85.62 66.32 85.49 66.41 85.43 66.46 C 83.82 67.62 82.30 68.89 80.71 70.08 C 81.79 67.41 84.09 65.54 85.92 63.40 C 83.44 64.61 81.36 66.82 78.51 67.18 C 80.55 65.05 83.07 63.47 85.47 61.79 C 83.33 62.46 79.05 63.80 76.91 64.47 C 78.94 63.14 81.10 62.02 83.18 60.78 C 81.20 60.29 78.52 62.43 76.90 61.11 C 78.35 59.98 80.16 59.52 81.81 58.79 C 80.62 58.73 78.24 58.62 77.05 58.56 C 77.05 58.27 77.05 57.69 77.05 57.40 C 78.44 57.40 79.82 57.40 81.21 57.38 L 81.56 56.01 C 81.67 55.87 81.89 55.59 82.00 55.45 L 82.73 54.57 C 80.63 53.87 78.67 52.82 76.85 51.57 C 79.08 51.92 81.23 52.59 83.37 53.30 C 82.19 51.31 79.77 50.57 78.52 48.62 C 80.22 49.33 81.93 50.07 83.75 50.44 L 83.57 50.82 L 84.04 51.18 C 84.16 51.17 84.40 51.16 84.52 51.16 L 84.04 51.18 C 83.96 51.00 83.82 50.63 83.75 50.44 C 82.53 49.05 81.39 47.57 80.68 45.85 C 82.84 47.47 84.80 49.32 86.82 51.11 C 85.61 48.71 83.99 46.52 82.96 44.03 C 84.36 44.83 85.30 46.13 86.01 47.55 C 86.45 46.99 86.88 46.42 87.29 45.84 C 86.91 45.02 86.14 43.38 85.76 42.56 C 87.97 44.30 88.61 47.19 89.98 49.54 C 89.62 46.86 89.16 44.20 88.97 41.51 M 87.52 48.25 C 87.76 48.51 87.76 48.51 87.52 48.25 M 90.26 52.32 C 85.69 53.95 85.22 61.18 89.59 63.33 C 93.32 65.75 98.86 62.41 98.42 57.95 C 98.78 53.82 93.97 50.62 90.26 52.32 Z" />
</g>
<g id="#f7f1eeff">
<path fill="#f7f1ee" opacity="1.00" d=" M 87.52 48.25 C 87.76 48.51 87.76 48.51 87.52 48.25 Z" />
</g>
<g id="#f5efebff">
<path fill="#f5efeb" opacity="1.00" d=" M 97.43 48.49 L 97.67 48.31 C 97.59 48.40 97.43 48.59 97.35 48.68 L 97.43 48.49 Z" />
</g>
<g id="#f7f1edff">
<path fill="#f7f1ed" opacity="1.00" d=" M 98.94 50.13 C 99.02 49.98 99.17 49.67 99.25 49.52 L 99.32 49.87 L 98.94 50.13 Z" />
<path fill="#f7f1ed" opacity="1.00" d=" M 85.43 66.46 C 85.49 66.41 85.62 66.32 85.68 66.27 L 85.63 66.52 L 85.43 66.46 Z" />
</g>
<g id="#f9f5f1ff">
<path fill="#f9f5f1" opacity="1.00" d=" M 83.75 50.44 C 83.82 50.63 83.96 51.00 84.04 51.18 L 83.57 50.82 L 83.75 50.44 Z" />
<path fill="#f9f5f1" opacity="1.00" d=" M 101.31 65.34 L 101.48 65.39 L 101.44 65.51 C 101.41 65.47 101.35 65.38 101.31 65.34 Z" />
</g>
<g id="#efe1d5ff">
<path fill="#efe1d5" opacity="1.00" d=" M 98.94 50.13 C 98.45 50.51 98.45 50.51 98.94 50.13 Z" />
</g>
<g id="#f2e7e0ff">
<path fill="#f2e7e0" opacity="1.00" d=" M 84.04 51.18 L 84.52 51.16 C 84.40 51.16 84.16 51.17 84.04 51.18 Z" />
</g>
<g id="#f6b40eff">
<path fill="#f6b40e" opacity="1.00" d=" M 90.26 52.32 C 93.97 50.62 98.78 53.82 98.42 57.95 C 98.86 62.41 93.32 65.75 89.59 63.33 C 85.22 61.18 85.69 53.95 90.26 52.32 Z" />
</g>
<g id="#d29e54ff">
<path fill="#d29e54" opacity="1.00" d=" M 77.16 55.39 C 75.79 54.21 78.64 54.40 79.16 54.62 C 79.87 54.83 81.29 55.24 82.00 55.45 C 81.89 55.59 81.67 55.87 81.56 56.01 C 80.01 56.41 78.55 56.21 77.16 55.39 Z" />
</g>
</svg>
