<?xml version="1.0" encoding="UTF-8" ?>
<!DOCTYPE svg PUBLIC "-//W3C//DTD SVG 1.1//EN" "http://www.w3.org/Graphics/SVG/1.1/DTD/svg11.dtd">
<svg width="300pt" height="210pt" viewBox="0 0 300 210" version="1.1" xmlns="http://www.w3.org/2000/svg">
<g id="#fdfefeff">
<path fill="#fdfefe" opacity="1.00" d=" M 0.00 0.00 L 0.02 0.00 C 0.02 0.03 0.01 0.10 0.00 0.13 L 0.00 0.00 Z" />
<path fill="#fdfefe" opacity="1.00" d=" M 102.01 83.76 C 137.41 78.61 174.77 89.15 202.01 112.40 C 201.67 114.35 201.35 116.29 201.08 118.25 L 200.83 118.47 C 199.27 120.85 197.37 118.19 195.91 117.13 C 169.46 95.02 133.14 85.81 99.26 91.76 L 99.49 90.36 C 99.89 88.97 100.34 87.59 100.91 86.26 C 101.19 85.64 101.74 84.39 102.01 83.76 Z" />
<path fill="#fdfefe" opacity="1.00" d=" M 164.65 88.33 C 166.42 85.25 169.78 89.89 166.06 90.15 C 164.92 89.97 164.45 89.36 164.65 88.33 Z" />
<path fill="#fdfefe" opacity="1.00" d=" M 105.43 95.67 C 106.05 95.02 106.68 94.39 107.34 93.78 C 108.46 94.84 108.50 96.41 108.82 97.81 C 107.69 97.12 106.28 96.76 105.43 95.67 Z" />
<path fill="#fdfefe" opacity="1.00" d=" M 164.35 101.10 C 166.22 100.99 165.60 103.82 164.05 103.70 C 162.33 103.71 162.90 101.06 164.35 101.10 Z" />
<path fill="#fdfefe" opacity="1.00" d=" M 128.37 105.92 C 129.46 106.04 130.56 106.15 131.66 106.26 C 131.11 107.19 130.52 108.08 129.97 109.01 C 129.42 107.99 128.90 106.95 128.37 105.92 Z" />
<path fill="#fdfefe" opacity="1.00" d=" M 148.60 113.01 C 149.51 111.83 150.45 111.83 151.39 112.99 C 152.10 115.35 147.93 115.38 148.60 113.01 Z" />
<path fill="#fdfefe" opacity="1.00" d=" M 116.16 114.09 C 119.07 112.44 116.54 117.39 116.16 114.09 Z" />
<path fill="#fdfefe" opacity="1.00" d=" M 110.99 116.00 C 111.86 116.43 112.73 116.87 113.60 117.31 C 113.38 117.66 112.95 118.38 112.73 118.74 C 111.89 119.03 111.06 119.32 110.22 119.61 C 110.44 118.40 110.72 117.20 110.99 116.00 Z" />
<path fill="#fdfefe" opacity="1.00" d=" M 143.68 117.02 C 144.82 115.76 146.57 117.81 145.66 118.98 C 144.57 120.27 142.78 118.15 143.68 117.02 Z" />
<path fill="#fdfefe" opacity="1.00" d=" M 154.34 117.52 C 155.45 117.25 156.58 117.04 157.71 116.86 C 157.17 117.90 156.61 118.93 156.03 119.95 C 155.47 119.14 154.90 118.33 154.34 117.52 Z" />
<path fill="#fdfefe" opacity="1.00" d=" M 121.34 122.20 C 121.84 120.63 124.44 121.62 124.21 123.08 C 123.76 124.98 120.79 123.96 121.34 122.20 Z" />
<path fill="#fdfefe" opacity="1.00" d=" M 185.92 121.38 C 186.67 122.04 187.54 122.49 188.52 122.73 C 188.24 123.43 187.97 124.14 187.70 124.86 C 187.11 124.77 185.92 124.61 185.33 124.53 C 185.53 123.48 185.72 122.43 185.92 121.38 Z" />
<path fill="#fdfefe" opacity="1.00" d=" M 193.25 123.09 C 194.88 122.49 195.44 123.00 194.93 124.64 C 193.30 125.23 192.74 124.72 193.25 123.09 Z" />
<path fill="#fdfefe" opacity="1.00" d=" M 187.93 126.71 C 188.82 126.89 189.69 127.19 190.57 127.44 C 190.23 128.03 189.53 129.19 189.18 129.78 C 188.53 128.88 186.95 127.90 187.93 126.71 Z" />
<path fill="#fdfefe" opacity="1.00" d=" M 120.46 127.16 C 122.10 126.69 122.58 127.27 121.90 128.91 C 120.28 129.37 119.80 128.79 120.46 127.16 Z" />
<path fill="#fdfefe" opacity="1.00" d=" M 148.59 127.60 C 149.75 127.11 150.88 127.62 151.97 128.02 C 151.39 128.84 150.74 129.58 150.00 130.24 C 149.04 129.73 148.16 128.75 148.59 127.60 Z" />
<path fill="#fdfefe" opacity="1.00" d=" M 127.22 131.92 C 128.31 131.54 129.44 131.67 130.55 131.92 C 130.32 133.02 130.35 134.13 130.40 135.24 L 129.05 133.66 L 127.30 135.20 C 128.08 134.13 127.82 133.00 127.22 131.92 Z" />
<path fill="#fdfefe" opacity="1.00" d=" M 175.25 133.10 C 176.86 132.48 177.43 132.99 176.94 134.64 C 175.32 135.25 174.75 134.73 175.25 133.10 Z" />
<path fill="#fdfefe" opacity="1.00" d=" M 170.36 134.40 C 172.10 134.35 171.69 137.16 170.10 136.95 C 168.32 136.94 168.78 134.27 170.36 134.40 Z" />
<path fill="#fdfefe" opacity="1.00" d=" M 180.42 133.96 C 181.51 132.37 183.72 134.42 182.50 135.76 C 181.42 137.44 179.33 135.27 180.42 133.96 Z" />
<path fill="#fdfefe" opacity="1.00" d=" M 176.38 143.15 C 178.24 143.09 177.45 145.89 175.93 145.66 C 174.07 145.65 174.89 143.01 176.38 143.15 Z" />
</g>
<g id="#009b3aff">
<path fill="#009b3a" opacity="1.00" d=" M 0.02 0.00 L 300.00 0.00 L 300.00 210.00 L 0.00 210.00 L 0.00 0.13 C 0.01 0.10 0.02 0.03 0.02 0.00 M 25.62 105.01 C 67.04 131.57 108.56 157.98 150.01 184.49 C 191.52 158.03 233.02 131.54 274.49 105.00 C 233.02 78.46 191.52 51.98 150.01 25.51 C 108.56 52.04 67.03 78.42 25.62 105.01 Z" />
</g>
<g id="#fedf00ff">
<path fill="#fedf00" opacity="1.00" d=" M 25.62 105.01 C 67.03 78.42 108.56 52.04 150.01 25.51 C 191.52 51.98 233.02 78.46 274.49 105.00 C 233.02 131.54 191.52 158.03 150.01 184.49 C 108.56 157.98 67.04 131.57 25.62 105.01 M 130.99 56.10 C 117.31 61.34 106.19 72.62 100.91 86.26 C 100.34 87.59 99.89 88.97 99.49 90.36 L 99.63 89.49 C 97.86 96.81 96.91 104.42 97.99 111.93 C 99.92 127.31 109.18 141.51 122.38 149.59 C 135.01 157.53 151.07 159.57 165.31 155.19 C 182.46 150.18 196.23 135.58 200.83 118.47 L 201.08 118.25 C 201.35 116.29 201.67 114.35 202.01 112.40 C 203.01 104.05 202.33 95.44 199.46 87.50 C 194.59 73.50 183.46 61.85 169.70 56.35 C 157.45 51.38 143.30 51.26 130.99 56.10 Z" />
</g>
<g id="#002776ff">
<path fill="#002776" opacity="1.00" d=" M 130.99 56.10 C 143.30 51.26 157.45 51.38 169.70 56.35 C 183.46 61.85 194.59 73.50 199.46 87.50 C 202.33 95.44 203.01 104.05 202.01 112.40 C 174.77 89.15 137.41 78.61 102.01 83.76 C 101.74 84.39 101.19 85.64 100.91 86.26 C 106.19 72.62 117.31 61.34 130.99 56.10 M 164.65 88.33 C 164.45 89.36 164.92 89.97 166.06 90.15 C 169.78 89.89 166.42 85.25 164.65 88.33 Z" />
<path fill="#002776" opacity="1.00" d=" M 99.63 89.49 L 99.49 90.36 L 99.26 91.76 C 133.14 85.81 169.46 95.02 195.91 117.13 C 197.37 118.19 199.27 120.85 200.83 118.47 C 196.23 135.58 182.46 150.18 165.31 155.19 C 151.07 159.57 135.01 157.53 122.38 149.59 C 109.18 141.51 99.92 127.31 97.99 111.93 C 96.91 104.42 97.86 96.81 99.63 89.49 M 105.43 95.67 C 106.28 96.76 107.69 97.12 108.82 97.81 C 108.50 96.41 108.46 94.84 107.34 93.78 C 106.68 94.39 106.05 95.02 105.43 95.67 M 164.35 101.10 C 162.90 101.06 162.33 103.71 164.05 103.70 C 165.60 103.82 166.22 100.99 164.35 101.10 M 128.37 105.92 C 128.90 106.95 129.42 107.99 129.97 109.01 C 130.52 108.08 131.11 107.19 131.66 106.26 C 130.56 106.15 129.46 106.04 128.37 105.92 M 148.60 113.01 C 147.93 115.38 152.10 115.35 151.39 112.99 C 150.45 111.83 149.51 111.83 148.60 113.01 M 116.16 114.09 C 116.54 117.39 119.07 112.44 116.16 114.09 M 110.99 116.00 C 110.72 117.20 110.44 118.40 110.22 119.61 C 111.06 119.32 111.89 119.03 112.73 118.74 C 112.95 118.38 113.38 117.66 113.60 117.31 C 112.73 116.87 111.86 116.43 110.99 116.00 M 143.68 117.02 C 142.78 118.15 144.57 120.27 145.66 118.98 C 146.57 117.81 144.82 115.76 143.68 117.02 M 154.34 117.52 C 154.90 118.33 155.47 119.14 156.03 119.95 C 156.61 118.93 157.17 117.90 157.71 116.86 C 156.58 117.04 155.45 117.25 154.34 117.52 M 121.34 122.20 C 120.79 123.96 123.76 124.98 124.21 123.08 C 124.44 121.62 121.84 120.63 121.34 122.20 M 185.92 121.38 C 185.72 122.43 185.53 123.48 185.33 124.53 C 185.92 124.61 187.11 124.77 187.70 124.86 C 187.97 124.14 188.24 123.43 188.52 122.73 C 187.54 122.49 186.67 122.04 185.92 121.38 M 193.25 123.09 C 192.74 124.72 193.30 125.23 194.93 124.64 C 195.44 123.00 194.88 122.49 193.25 123.09 M 187.93 126.71 C 186.95 127.90 188.53 128.88 189.18 129.78 C 189.53 129.19 190.23 128.03 190.57 127.44 C 189.69 127.19 188.82 126.89 187.93 126.71 M 120.46 127.16 C 119.80 128.79 120.28 129.37 121.90 128.91 C 122.58 127.27 122.10 126.69 120.46 127.16 M 148.59 127.60 C 148.16 128.75 149.04 129.73 150.00 130.24 C 150.74 129.58 151.39 128.84 151.97 128.02 C 150.88 127.62 149.75 127.11 148.59 127.60 M 127.22 131.92 C 127.82 133.00 128.08 134.13 127.30 135.20 L 129.05 133.66 L 130.40 135.24 C 130.35 134.13 130.32 133.02 130.55 131.92 C 129.44 131.67 128.31 131.54 127.22 131.92 M 175.25 133.10 C 174.75 134.73 175.32 135.25 176.94 134.64 C 177.43 132.99 176.86 132.48 175.25 133.10 M 170.36 134.40 C 168.78 134.27 168.32 136.94 170.10 136.95 C 171.69 137.16 172.10 134.35 170.36 134.40 M 180.42 133.96 C 179.33 135.27 181.42 137.44 182.50 135.76 C 183.72 134.42 181.51 132.37 180.42 133.96 M 176.38 143.15 C 174.89 143.01 174.07 145.65 175.93 145.66 C 177.45 145.89 178.24 143.09 176.38 143.15 Z" />
</g>
</svg>
